<?xml version="1.0" encoding="UTF-8"?>
<svg xmlns="http://www.w3.org/2000/svg" version="1.1" width="150" height="150" viewBox="0 0 150 150"><rect x="0" y="0" width="150" height="150" fill="#ffffff"/><g transform="scale(4.054)"><g transform="translate(0,0)"><path fill-rule="evenodd" d="M8 0L8 1L11 1L11 3L10 3L10 2L9 2L9 3L10 3L10 5L9 5L9 6L8 6L8 8L9 8L9 9L7 9L7 8L6 8L6 9L5 9L5 8L3 8L3 9L5 9L5 10L2 10L2 8L0 8L0 9L1 9L1 10L2 10L2 13L1 13L1 14L0 14L0 15L1 15L1 16L0 16L0 17L2 17L2 18L1 18L1 19L0 19L0 21L1 21L1 22L2 22L2 23L4 23L4 24L3 24L3 25L4 25L4 26L5 26L5 24L6 24L6 25L7 25L7 24L8 24L8 25L9 25L9 26L6 26L6 27L9 27L9 28L5 28L5 27L4 27L4 28L2 28L2 29L8 29L8 30L9 30L9 28L10 28L10 27L11 27L11 28L12 28L12 27L13 27L13 26L14 26L14 25L13 25L13 23L14 23L14 22L15 22L15 23L16 23L16 22L15 22L15 20L16 20L16 21L17 21L17 20L16 20L16 19L17 19L17 18L18 18L18 17L17 17L17 18L16 18L16 16L17 16L17 15L16 15L16 12L15 12L15 11L16 11L16 10L15 10L15 9L18 9L18 10L17 10L17 12L18 12L18 13L21 13L21 14L18 14L18 16L19 16L19 17L20 17L20 18L19 18L19 19L18 19L18 20L19 20L19 22L18 22L18 23L17 23L17 24L15 24L15 27L16 27L16 28L17 28L17 27L18 27L18 26L19 26L19 28L18 28L18 29L17 29L17 30L15 30L15 31L14 31L14 32L13 32L13 31L12 31L12 30L14 30L14 29L15 29L15 28L14 28L14 29L10 29L10 31L9 31L9 32L8 32L8 34L9 34L9 35L8 35L8 37L11 37L11 36L9 36L9 35L11 35L11 33L10 33L10 32L11 32L11 31L12 31L12 33L14 33L14 36L13 36L13 37L16 37L16 33L18 33L18 34L17 34L17 36L18 36L18 34L20 34L20 33L18 33L18 32L19 32L19 31L20 31L20 32L21 32L21 31L22 31L22 32L23 32L23 33L22 33L22 34L21 34L21 35L20 35L20 36L19 36L19 37L20 37L20 36L21 36L21 35L22 35L22 34L23 34L23 35L24 35L24 36L23 36L23 37L26 37L26 36L25 36L25 35L27 35L27 36L28 36L28 37L29 37L29 36L28 36L28 34L29 34L29 35L30 35L30 34L32 34L32 36L33 36L33 37L34 37L34 36L36 36L36 37L37 37L37 33L36 33L36 32L37 32L37 30L36 30L36 28L37 28L37 26L36 26L36 25L37 25L37 22L36 22L36 21L37 21L37 18L36 18L36 20L35 20L35 21L34 21L34 22L33 22L33 18L32 18L32 19L31 19L31 20L30 20L30 17L31 17L31 16L32 16L32 15L33 15L33 14L36 14L36 16L35 16L35 15L34 15L34 19L35 19L35 17L37 17L37 14L36 14L36 11L37 11L37 10L34 10L34 9L31 9L31 8L30 8L30 9L31 9L31 12L30 12L30 13L29 13L29 10L28 10L28 9L29 9L29 6L28 6L28 8L26 8L26 7L27 7L27 4L26 4L26 3L28 3L28 2L25 2L25 1L24 1L24 2L23 2L23 4L21 4L21 3L22 3L22 0L21 0L21 2L20 2L20 0L18 0L18 3L19 3L19 2L20 2L20 4L21 4L21 5L23 5L23 6L22 6L22 8L23 8L23 9L22 9L22 10L21 10L21 11L22 11L22 12L23 12L23 13L24 13L24 12L25 12L25 14L27 14L27 17L26 17L26 16L23 16L23 14L22 14L22 13L21 13L21 12L20 12L20 11L19 11L19 10L20 10L20 9L18 9L18 8L16 8L16 7L17 7L17 6L18 6L18 7L19 7L19 5L17 5L17 1L16 1L16 0L14 0L14 1L16 1L16 5L17 5L17 6L16 6L16 7L15 7L15 5L14 5L14 7L13 7L13 6L12 6L12 5L13 5L13 4L12 4L12 2L13 2L13 3L15 3L15 2L13 2L13 1L12 1L12 0ZM26 0L26 1L27 1L27 0ZM28 0L28 1L29 1L29 0ZM23 4L23 5L26 5L26 4ZM28 4L28 5L29 5L29 4ZM10 5L10 6L9 6L9 7L10 7L10 9L9 9L9 11L8 11L8 10L7 10L7 9L6 9L6 10L5 10L5 11L6 11L6 12L7 12L7 13L4 13L4 11L3 11L3 13L2 13L2 14L1 14L1 15L2 15L2 16L7 16L7 17L3 17L3 18L2 18L2 19L1 19L1 21L2 21L2 22L4 22L4 21L5 21L5 22L7 22L7 23L6 23L6 24L7 24L7 23L8 23L8 24L9 24L9 25L10 25L10 26L9 26L9 27L10 27L10 26L13 26L13 25L10 25L10 24L11 24L11 22L12 22L12 23L13 23L13 22L12 22L12 21L14 21L14 20L13 20L13 19L15 19L15 16L16 16L16 15L13 15L13 14L12 14L12 13L14 13L14 14L15 14L15 13L14 13L14 11L15 11L15 10L13 10L13 9L14 9L14 8L15 8L15 7L14 7L14 8L13 8L13 9L12 9L12 6L11 6L11 5ZM10 6L10 7L11 7L11 6ZM20 6L20 8L21 8L21 6ZM23 6L23 8L24 8L24 9L23 9L23 10L25 10L25 12L26 12L26 13L28 13L28 12L27 12L27 11L26 11L26 10L27 10L27 9L25 9L25 8L24 8L24 6ZM25 6L25 7L26 7L26 6ZM36 8L36 9L37 9L37 8ZM10 9L10 10L11 10L11 9ZM6 10L6 11L7 11L7 12L8 12L8 11L7 11L7 10ZM12 10L12 11L13 11L13 10ZM32 10L32 12L31 12L31 13L30 13L30 14L28 14L28 15L29 15L29 16L28 16L28 19L27 19L27 21L28 21L28 23L27 23L27 22L26 22L26 23L24 23L24 25L25 25L25 26L23 26L23 24L22 24L22 23L23 23L23 22L21 22L21 21L20 21L20 22L19 22L19 24L18 24L18 25L17 25L17 26L16 26L16 27L17 27L17 26L18 26L18 25L19 25L19 24L20 24L20 26L22 26L22 27L21 27L21 29L22 29L22 30L24 30L24 31L23 31L23 32L24 32L24 31L26 31L26 29L27 29L27 32L28 32L28 28L30 28L30 27L31 27L31 28L32 28L32 27L33 27L33 28L34 28L34 27L35 27L35 28L36 28L36 27L35 27L35 25L36 25L36 24L34 24L34 23L33 23L33 22L32 22L32 20L31 20L31 21L30 21L30 22L31 22L31 23L29 23L29 21L28 21L28 20L29 20L29 17L30 17L30 16L31 16L31 15L32 15L32 13L33 13L33 12L34 12L34 13L35 13L35 12L34 12L34 10ZM0 11L0 12L1 12L1 11ZM9 11L9 15L8 15L8 13L7 13L7 14L4 14L4 13L3 13L3 14L2 14L2 15L8 15L8 16L9 16L9 18L8 18L8 17L7 17L7 18L4 18L4 19L2 19L2 20L3 20L3 21L4 21L4 20L5 20L5 21L7 21L7 22L8 22L8 23L10 23L10 22L9 22L9 21L7 21L7 20L9 20L9 18L10 18L10 16L11 16L11 18L12 18L12 19L10 19L10 21L12 21L12 19L13 19L13 18L12 18L12 17L14 17L14 16L13 16L13 15L12 15L12 16L11 16L11 12L10 12L10 11ZM18 11L18 12L19 12L19 11ZM21 14L21 15L20 15L20 16L21 16L21 18L20 18L20 19L19 19L19 20L22 20L22 21L23 21L23 20L24 20L24 21L25 21L25 20L24 20L24 19L23 19L23 20L22 20L22 18L25 18L25 19L26 19L26 18L25 18L25 17L22 17L22 14ZM30 14L30 15L31 15L31 14ZM7 18L7 19L6 19L6 20L7 20L7 19L8 19L8 18ZM20 22L20 24L21 24L21 22ZM35 22L35 23L36 23L36 22ZM26 23L26 24L25 24L25 25L26 25L26 26L25 26L25 27L24 27L24 28L23 28L23 27L22 27L22 28L23 28L23 29L24 29L24 28L25 28L25 27L26 27L26 26L27 26L27 27L28 27L28 26L29 26L29 25L28 25L28 24L27 24L27 23ZM31 23L31 24L30 24L30 25L31 25L31 27L32 27L32 26L34 26L34 25L32 25L32 24L33 24L33 23ZM0 24L0 29L1 29L1 27L2 27L2 24ZM26 24L26 25L27 25L27 24ZM18 29L18 30L17 30L17 31L16 31L16 32L15 32L15 33L16 33L16 32L18 32L18 31L19 31L19 30L20 30L20 29ZM29 29L29 32L32 32L32 29ZM34 29L34 31L33 31L33 33L32 33L32 34L34 34L34 35L33 35L33 36L34 36L34 35L36 35L36 34L34 34L34 33L35 33L35 31L36 31L36 30L35 30L35 29ZM30 30L30 31L31 31L31 30ZM25 32L25 33L24 33L24 35L25 35L25 34L26 34L26 32ZM27 33L27 34L28 34L28 33ZM12 34L12 35L13 35L13 34ZM0 0L0 7L7 7L7 0ZM1 1L1 6L6 6L6 1ZM2 2L2 5L5 5L5 2ZM30 0L30 7L37 7L37 0ZM31 1L31 6L36 6L36 1ZM32 2L32 5L35 5L35 2ZM0 30L0 37L7 37L7 30ZM1 31L1 36L6 36L6 31ZM2 32L2 35L5 35L5 32Z" fill="#000000"/></g></g></svg>
